<mxfile host="app.diagrams.net" modified="2023-07-07T06:38:44.289Z" agent="Mozilla/5.0 (Macintosh; Intel Mac OS X 10_15_7) AppleWebKit/537.36 (KHTML, like Gecko) Chrome/114.0.0.0 Safari/537.36" version="21.6.1" etag="yX03KejTwOfuI5TvRbcX" type="github">
  <diagram name="第 1 页" id="730xhxP8ehlDa5L77ZIn">
    <mxGraphModel>
      <root>
        <mxCell id="0" />
        <mxCell id="1" parent="0" />
      </root>
    </mxGraphModel>
  </diagram>
</mxfile>
